<?xml version="1.0" encoding="UTF-8"?>
<svg version="1.1" xmlns="http://www.w3.org/2000/svg" width="512" height="512">
<path d="M0 0 C4.42962906 1.51255627 6.55910783 6.00594507 9.08203125 9.7109375 C10.20912501 11.03956458 11.35339424 12.35394349 12.51953125 13.6484375 C15.08203125 16.7109375 15.08203125 16.7109375 15.08203125 18.7109375 C15.65695313 18.98292969 16.231875 19.25492188 16.82421875 19.53515625 C19.82805258 21.0994365 22.51108278 23.03364735 25.27734375 24.98046875 C34.35076877 30.57869616 43.91784488 33.79563744 53.99319458 37.0718689 C89.81761609 48.79292825 114.22396154 65.30222703 133.61572266 98.25463867 C145.60326365 118.53725016 159.1574378 136.8643808 182.828125 143.15234375 C186.41568437 143.76821529 189.45428319 144.11591525 193.08203125 143.7109375 C195.25148676 141.84191242 195.25148676 141.84191242 196.83203125 139.2109375 C200.49381433 134.13746897 204.41306175 131.04291806 209.6640625 127.6953125 C213.14371697 124.83963484 214.77555221 121.74754013 215.4453125 117.296875 C215.42855469 116.56726563 215.41179687 115.83765625 215.39453125 115.0859375 C215.39066406 114.35117188 215.38679687 113.61640625 215.3828125 112.859375 C215.02907364 110.33266883 214.54827169 108.81062925 213.08203125 106.7109375 C208.23501457 103.94191692 202.96936139 104.43199702 197.55859375 104.4375 C195.4648384 104.41721123 193.37108844 104.39636045 191.27734375 104.375 C187.99018803 104.35241124 184.70324538 104.33593076 181.41601562 104.33007812 C178.23398727 104.32053395 175.0529084 104.28673484 171.87109375 104.25 C170.89484039 104.25504547 169.91858704 104.26009094 168.91275024 104.26528931 C162.77276934 104.17718442 159.08733377 103.34226763 154.08203125 99.7109375 C150.11805003 94.59948803 148.26939073 90.17772473 149.08203125 83.7109375 C153.19017336 67.25489397 161.52645249 54.97900601 175.65625 45.76171875 C185.73518087 39.72815124 194.58499109 37.59009538 206.140625 37.5 C208.15690878 37.47190418 210.1731847 37.44323958 212.18945312 37.4140625 C215.34203639 37.37306598 218.49447729 37.33614871 221.6472168 37.30957031 C246.01013193 37.6533786 246.01013193 37.6533786 267.04296875 26.890625 C270.6222691 23.03947906 272.98756258 19.1516951 275.1953125 14.41015625 C276.4490931 12.00753704 277.63009406 10.8647903 280.08203125 9.7109375 C283.08203125 9.2734375 283.08203125 9.2734375 286.08203125 9.7109375 C293.53994022 15.68590318 295.54982834 27.65746358 296.80078125 36.71484375 C298.09981153 50.5531246 296.80891714 63.40698463 288.08203125 74.7109375 C284.45777577 78.474856 280.83957283 81.51189606 276.08203125 83.7109375 C275.30216636 96.79792961 275.30216636 96.79792961 274.83203125 109.8984375 C274.80625 110.84074219 274.78046875 111.78304687 274.75390625 112.75390625 C275.37462608 118.34777425 276.70529929 122.94744165 281.19140625 126.58203125 C282.39366142 127.45329049 283.60772762 128.30844299 284.83203125 129.1484375 C290.07704945 132.9497867 293.97445006 136.49394374 297.359375 142.12890625 C299.09772339 144.04162312 299.09772339 144.04162312 302.3515625 144.046875 C318.61667027 142.58216372 331.70959051 134.20067102 342.3359375 122.15625 C348.81662781 114.10610091 354.18538072 105.37183887 359.55322266 96.55273438 C380.88671847 61.64441944 407.85895376 46.83027037 445.73046875 34.38720703 C455.56083811 31.09821066 465.83165451 27.5643679 473.45703125 20.2734375 C474.66746094 19.11714844 474.66746094 19.11714844 475.90234375 17.9375 C479.42569528 14.33837747 482.77566363 10.75349019 485.49609375 6.5 C489.08543257 1.02961731 489.08543257 1.02961731 492.09765625 0.06640625 C495.44065289 -0.10074358 497.62427278 0.36477566 500.29321289 2.38305664 C502.57223498 5.3488647 502.58461635 6.99256934 502.578125 10.70703125 C502.58259644 12.48895874 502.58259644 12.48895874 502.5871582 14.30688477 C502.56484131 15.57459717 502.54252441 16.84230957 502.51953125 18.1484375 C502.50559326 19.45288818 502.49165527 20.75733887 502.47729492 22.10131836 C502.26875438 33.16619418 501.27876521 43.86780676 499.08203125 54.7109375 C498.91574219 55.53319824 498.74945313 56.35545898 498.578125 57.20263672 C492.87965212 84.26510652 481.62151082 113.34235463 461.08203125 132.7109375 C462.04625 132.73671875 463.01046875 132.7625 464.00390625 132.7890625 C465.2671875 132.84578125 466.53046875 132.9025 467.83203125 132.9609375 C469.085 133.00734375 470.33796875 133.05375 471.62890625 133.1015625 C475.08203125 133.7109375 475.08203125 133.7109375 477.47265625 135.3828125 C479.51520388 138.33756587 479.99860337 140.11036587 480.08203125 143.7109375 C479.26809788 146.30847215 478.42099155 148.52434619 477.26953125 150.9609375 C476.95330811 151.65058594 476.63708496 152.34023437 476.3112793 153.05078125 C463.11681613 181.24283488 444.91865114 206.60240559 417.08203125 221.7109375 C417.92765625 222.5565625 418.77328125 223.4021875 419.64453125 224.2734375 C421.68222984 226.78406901 422.06820695 227.53467761 422.33203125 230.8984375 C419.15293563 244.26241354 406.38663077 255.63806207 395.3203125 262.7421875 C373.25139405 276.15923804 346.05392206 276.72790815 321.41015625 270.8671875 C316.59422642 269.62409411 311.8674086 268.1644759 307.19921875 266.4453125 C305.1405942 265.6017011 305.1405942 265.6017011 303.08203125 265.7109375 C302.82099609 266.33436035 302.55996094 266.9577832 302.29101562 267.60009766 C297.18882211 279.72339197 292.02685922 291.51773712 285.08203125 302.7109375 C286.15130859 303.92716797 286.15130859 303.92716797 287.2421875 305.16796875 C311.45033182 333.01051164 320.05109373 363.0440733 318.08203125 399.7109375 C316.75566641 413.69948575 313.53391724 436.583141 303.08203125 446.7109375 C299.67100941 447.39314187 298.28257896 447.65498395 295.08203125 446.7109375 C292.10247548 444.66375973 289.58073398 442.31596801 287.08203125 439.7109375 C286.75203125 440.0409375 286.42203125 440.3709375 286.08203125 440.7109375 C291.88202084 460.15796142 299.38818593 479.98148606 317.33203125 491.3359375 C325.98822272 495.94173578 335.30286127 497.42894633 344.93359375 494.98828125 C355.69759559 490.97210534 361.7961783 483.5100652 366.71875 473.32421875 C376.46511157 450.22264132 377.37674039 426.20333852 377.53833008 401.45703125 C377.72387335 377.47913206 378.99003182 350.3686728 396.33203125 331.8359375 C405.31213807 323.34288732 414.79801044 321.22347217 426.7734375 321.4375 C436.07963261 321.84465863 443.48693658 326.2983158 450.08203125 332.7109375 C456.54998788 340.72489352 458.09240467 349.6072033 457.08203125 359.7109375 C454.58124722 370.39610561 449.38727408 377.68633378 440.23046875 383.58203125 C435.44437521 386.09690586 430.39017356 386.33850112 425.08203125 385.7109375 C419.8960947 384.03393869 415.83726488 381.53259636 413.08203125 376.7109375 C412.4819122 373.03520834 412.5552798 371.46054534 414.70703125 368.3984375 C417.64139914 366.31349189 419.48422175 365.78436218 423.08203125 365.7109375 C424.75942987 366.69282937 426.42670502 367.69227521 428.08203125 368.7109375 C431.71446675 368.7109375 432.9646815 367.8091838 435.76953125 365.4609375 C438.90614213 361.73091375 439.91097977 359.22189222 440.45703125 354.3984375 C439.93328479 349.24826398 438.52195355 344.86053994 434.5390625 341.3515625 C429.79088103 338.35271104 424.59716488 337.01060436 419.04296875 338.1171875 C411.38044228 340.60233122 406.66759788 345.11294483 402.89453125 352.1484375 C396.87459424 365.08969247 394.9888156 378.42939044 394.87109375 392.5546875 C394.84564262 394.44792807 394.81932477 396.34115715 394.79223633 398.234375 C394.77899323 399.21116211 394.76575012 400.18794922 394.75210571 401.19433594 C393.65703394 474.48184728 393.65703394 474.48184728 369.08203125 499.7109375 C358.13297987 509.97314802 346.40107171 513.21883262 331.77734375 512.9921875 C317.73170494 512.42468694 305.09329579 505.23423159 295.08203125 495.7109375 C291.80856041 491.88308853 288.90846929 487.87679009 286.08203125 483.7109375 C285.54964844 482.95554687 285.01726562 482.20015625 284.46875 481.421875 C279.21298184 473.4036411 272.08203125 460.45969489 272.08203125 450.7109375 C271.42203125 450.7109375 270.76203125 450.7109375 270.08203125 450.7109375 C269.69337891 452.57105469 269.69337891 452.57105469 269.296875 454.46875 C268.01067356 460.25382843 266.33492878 465.90821161 264.64453125 471.5859375 C264.04069064 473.62471118 263.43782064 475.66377259 262.8359375 477.703125 C262.54146729 478.69618652 262.24699707 479.68924805 261.94360352 480.71240234 C260.83251718 484.57932284 259.83565223 488.4729994 258.86328125 492.37695312 C257.48614209 496.49115637 255.02686846 499.73851889 251.08203125 501.7109375 C246.26603722 502.38517666 242.97386369 502.22291538 238.70703125 499.7734375 C236.48105189 497.59645172 235.52714132 495.61756466 234.6015625 492.6640625 C234.35051758 491.86750244 234.09947266 491.07094238 233.84082031 490.25024414 C232.56430092 485.97833994 231.34338377 481.692717 230.14453125 477.3984375 C227.60180012 464.71969914 227.60180012 464.71969914 222.08203125 453.7109375 C221.71851563 454.65453125 221.355 455.598125 220.98046875 456.5703125 C216.00823458 469.33695007 210.53938577 480.81942843 202.08203125 491.7109375 C200.93734375 493.28875 200.93734375 493.28875 199.76953125 494.8984375 C190.17152184 504.94286595 176.79142096 512.30859691 162.75 513.046875 C153.81425421 513.22629973 146.19713246 512.85923205 138.08203125 508.7109375 C137.23382813 508.2984375 136.385625 507.8859375 135.51171875 507.4609375 C120.05325682 499.14078674 111.58799315 482.57529094 106.3984375 466.41796875 C101.68332408 450.44144989 100.12243144 433.9107391 99.87109375 417.328125 C99.8566774 416.38215958 99.84226105 415.43619415 99.82740784 414.46156311 C99.77041853 410.51966894 99.71589684 406.57789796 99.68066406 402.63574219 C99.47025169 380.84717795 98.83759491 357.83827315 82.76953125 341.3359375 C77.80153307 338.33203162 72.62832271 337.10569872 66.89453125 338.3359375 C61.89796535 339.90856183 58.20003262 342.07120216 55.20703125 346.4609375 C53.21794092 352.20719846 53.30715304 356.58447061 55.83203125 362.0234375 C57.49608637 364.98954277 58.89442484 367.2620255 62.08203125 368.7109375 C64.82819161 368.50497547 66.64075971 367.96715968 69.01953125 366.5859375 C72.05714954 365.29725095 73.95472989 365.79880794 77.08203125 366.7109375 C80.06690223 368.83176688 80.93909012 369.98034952 81.64453125 373.5859375 C80.91099012 377.66116598 79.15685043 380.07204205 76.08203125 382.7109375 C70.1487194 386.13400203 64.62389381 386.66215777 58.01171875 385.27734375 C51.15624152 383.11316368 45.98045717 378.85713577 42.28125 372.7265625 C37.30949247 362.9966313 35.38435806 354.42342732 38.14453125 343.5859375 C41.14139013 334.84509909 46.64170821 329.40389275 54.5546875 324.90234375 C63.7520362 320.56665387 75.77706694 319.75638713 85.51953125 323.1484375 C94.50603059 327.49624979 101.30596749 335.09107468 106.08203125 343.7109375 C106.52160156 344.49597656 106.96117188 345.28101563 107.4140625 346.08984375 C114.45323836 360.01933073 116.1457476 376.40110805 116.328125 391.80078125 C116.36109576 393.74023834 116.3943068 395.67969136 116.42773438 397.61914062 C116.4747383 400.61984182 116.51916227 403.62053056 116.55883789 406.62133789 C116.93030151 433.5068512 117.63028191 466.73564495 137.08203125 487.7109375 C144.63786327 494.07374341 151.88502803 496.2022838 161.69921875 496.0234375 C174.02829022 494.88449325 182.92951882 487.86399405 190.7890625 478.7734375 C199.97449169 466.50533445 204.70359026 452.23658127 209.08203125 437.7109375 C206.33083065 439.84266247 204.0453509 441.75576904 201.83203125 444.4609375 C198.40956474 447.26113737 196.45377385 447.23819678 192.16796875 447.1796875 C189.47110138 446.57364989 188.73082284 445.93680614 187.08203125 443.7109375 C186.00961555 441.41960122 185.07729144 439.20234785 184.20703125 436.8359375 C183.95091064 436.14628906 183.69479004 435.45664062 183.4309082 434.74609375 C171.87904196 402.37089124 171.11487076 367.37587798 185.08203125 335.7109375 C190.69289587 323.94327084 198.60585382 313.55424032 207.08203125 303.7109375 C205.61558445 299.69672454 203.66619528 296.23853938 201.45703125 292.5859375 C196.40669846 284.03469897 192.76985522 274.91088134 189.08203125 265.7109375 C188.48874023 265.90026855 187.89544922 266.08959961 187.28417969 266.28466797 C181.7103009 268.04638 176.07972009 269.48864848 170.39453125 270.8359375 C169.68240479 271.00641602 168.97027832 271.17689453 168.23657227 271.35253906 C143.43052679 277.14455061 116.97200715 275.21182889 95.08203125 261.7109375 C84.08849791 254.29907393 73.96496974 243.81495378 69.89453125 230.9609375 C70.15871946 226.38167516 71.88364405 224.9093247 75.08203125 221.7109375 C74.36660156 221.33324219 73.65117188 220.95554688 72.9140625 220.56640625 C45.50119861 205.42372464 27.73864656 179.00606171 14.95703125 151.0859375 C14.49538574 150.10947266 14.49538574 150.10947266 14.02441406 149.11328125 C12.18305778 144.92065464 11.62313529 142.08762538 13.08203125 137.7109375 C14.69140625 135.3828125 14.69140625 135.3828125 17.08203125 133.7109375 C20.53515625 133.1015625 20.53515625 133.1015625 24.33203125 132.9609375 C25.5953125 132.90421875 26.85859375 132.8475 28.16015625 132.7890625 C29.60648438 132.75039063 29.60648438 132.75039063 31.08203125 132.7109375 C30.54835937 132.16308594 30.0146875 131.61523438 29.46484375 131.05078125 C2.34164552 102.19132292 -9.98320936 60.51262287 -10.21313477 21.50976562 C-10.22475222 20.13661475 -10.24535483 18.76351232 -10.2746582 17.390625 C-10.3172448 15.38834124 -10.33088684 13.38550778 -10.34375 11.3828125 C-10.35833252 10.1978418 -10.37291504 9.01287109 -10.38793945 7.79199219 C-9.4973908 1.953694 -5.85591683 -0.28247465 0 0 Z " fill="#000001" transform="translate(9.91796875,-0.7109375)"/>
<path d="M0 0 C0.66 0 1.32 0 2 0 C2.98971591 20.19020466 2.98971591 20.19020466 -3 28 C-6.59541637 31.69258978 -11.25379696 34.03027335 -16 36 C-16.66 36 -17.32 36 -18 36 C-18.90456439 38.71369318 -19.1349075 40.3365998 -19.16113281 43.12915039 C-19.17074036 43.95753922 -19.1803479 44.78592804 -19.19024658 45.63941956 C-19.19449646 46.53313766 -19.19874634 47.42685577 -19.203125 48.34765625 C-19.20882507 49.2741246 -19.21452515 50.20059296 -19.22039795 51.15513611 C-19.22984842 53.11960713 -19.23638212 55.08409401 -19.24023438 57.04858398 C-19.24988439 60.02682006 -19.28088407 63.0043494 -19.3125 65.98242188 C-19.31903605 67.89582926 -19.32428415 69.80924156 -19.328125 71.72265625 C-19.3466452 73.04197899 -19.3466452 73.04197899 -19.36553955 74.38795471 C-19.33119028 84.12188016 -17.04003809 92.99988651 -10 100 C-7.87193355 101.6597275 -5.73741256 103.27996158 -3.5625 104.875 C2.30109508 109.18889528 6.41219571 113.57555705 10 120 C10.45761719 120.81726563 10.91523438 121.63453125 11.38671875 122.4765625 C26.28347412 152.09113323 20.02566644 190.60361182 10.17578125 220.734375 C3.21467203 241.22976746 -7.09102751 262.88175803 -25 276 C-29.27171932 277.96706832 -32.27313666 278.69740607 -37 278 C-49.45254119 271.57754509 -57.36428901 259.91793452 -64 248 C-64.3285498 247.42072754 -64.65709961 246.84145508 -64.99560547 246.24462891 C-73.96272053 230.22285818 -79.95772363 212.08695815 -83 194 C-83.16483887 193.18490967 -83.32967773 192.36981934 -83.49951172 191.5300293 C-85.16228885 182.78821213 -85.40129177 174.17550418 -85.375 165.3125 C-85.3737915 164.55954651 -85.37258301 163.80659302 -85.37133789 163.03082275 C-85.28554461 143.35225082 -81.9354334 123.94108323 -68 109 C-65.85395206 107.32937604 -63.72065273 105.74628598 -61.5 104.1875 C-56.03065665 100.16095674 -52.43285161 96.39526833 -50 90 C-49.566875 88.88625 -49.13375 87.7725 -48.6875 86.625 C-46.94350133 77.42937063 -47.66368437 70.91550986 -52.21484375 62.609375 C-55.59600012 57.66711579 -59.68226198 55.65886901 -65 53 C-65 40.79 -65 28.58 -65 16 C-48.375 15.75 -48.375 15.75 -43.22412109 15.70214844 C-28.74242384 15.45064128 -12.55684158 13.0221732 -1.9375 2.125 C-0.9784375 1.073125 -0.9784375 1.073125 0 0 Z " fill="#4237C9" transform="translate(289,36)"/>
<path d="M0 0 C1.06734375 1.08861328 1.06734375 1.08861328 2.15625 2.19921875 C13.59699625 13.46709659 26.1734163 21.30558346 40.6875 28 C49.15466924 31.91773452 56.5410642 35.98727774 62.82421875 43.05078125 C65.21696481 45.74383139 65.21696481 45.74383139 68 48 C70.17786809 48.10133133 70.17786809 48.10133133 72.4375 47.75 C74.74609375 47.57421875 74.74609375 47.57421875 77 48 C80.39305518 51.15860223 82.6444623 55.04606172 85 59 C85.83256585 60.35724193 86.66593096 61.71399381 87.5 63.0703125 C89.70825832 66.68992478 91.86450711 70.3370365 94 74 C93.484375 74.70125 92.96875 75.4025 92.4375 76.125 C90.62484275 79.75031449 90.83640417 81.15043712 92 85 C93.26303 87.32871157 94.52448349 89.44374814 96 91.625 C96.40154297 92.23182617 96.80308594 92.83865234 97.21679688 93.46386719 C103.77437536 103.26954422 110.90852398 112.41282996 119 121 C119.93392578 122.03060547 119.93392578 122.03060547 120.88671875 123.08203125 C132.79564988 135.73995176 149.32629083 144.35230532 165.83984375 149.30859375 C168 150 168 150 169 151 C169.30837391 153.60438559 169.57096975 156.20173792 169.8125 158.8125 C170.61460923 166.83767638 171.99825234 174.65137008 173.67895508 182.53637695 C173.84935303 183.337771 174.01975098 184.13916504 174.1953125 184.96484375 C174.35016113 185.6724585 174.50500977 186.38007324 174.66455078 187.10913086 C175 189 175 189 175 192 C150.84191816 200.65209287 125.96096386 205.95014607 101.46875 195.4921875 C93.77313362 191.6263989 84.44893938 186.34999065 80.73046875 178.2265625 C80.36888672 177.12441406 80.36888672 177.12441406 80 176 C80.61520508 175.83918945 81.23041016 175.67837891 81.86425781 175.51269531 C84.66343935 174.77251189 87.45655043 174.01151705 90.25 173.25 C91.21808594 172.99734375 92.18617187 172.7446875 93.18359375 172.484375 C100.04504769 170.76216581 100.04504769 170.76216581 105 166 C105.08916154 162.37350049 105.08916154 162.37350049 104 159 C100.8860548 156.92403654 99.14343498 156.7246264 95.50439453 156.47021484 C80.60304695 155.39800828 68.46268837 149.49867634 57 140 C56.17242187 139.33484375 55.34484375 138.6696875 54.4921875 137.984375 C44.7245204 129.71707056 37.36012424 119.44489301 30.5625 108.6875 C30.16160156 108.05448975 29.76070312 107.42147949 29.34765625 106.76928711 C26.43882833 102.03322881 24.15389081 97.11944598 22 92 C23.01368652 91.970271 23.01368652 91.970271 24.04785156 91.93994141 C27.11562044 91.84456762 30.18271998 91.73493835 33.25 91.625 C34.31347656 91.5940625 35.37695312 91.563125 36.47265625 91.53125 C37.49746094 91.49257812 38.52226563 91.45390625 39.578125 91.4140625 C40.52075195 91.3826416 41.46337891 91.3512207 42.43457031 91.31884766 C45.08304297 90.9896789 46.75849166 90.42935843 49 89 C50.81896973 85.36206054 50.25254202 81.75762607 49 78 C47.69035128 77.28793087 46.35272017 76.62639474 45 76 C23.54250411 59.41294215 11.14525328 36.54536376 2.625 11.3125 C2.36187012 10.53358398 2.09874023 9.75466797 1.82763672 8.95214844 C0.81482127 5.86398082 0 3.27136205 0 0 Z " fill="#E0E6EE" transform="translate(20,57)"/>
<path d="M0 0 C0.98971591 20.19020466 0.98971591 20.19020466 -5 28 C-8.59541637 31.69258978 -13.25379696 34.03027335 -18 36 C-18.66 36 -19.32 36 -20 36 C-20.90456439 38.71369318 -21.1349075 40.3365998 -21.16113281 43.12915039 C-21.17074036 43.95753922 -21.1803479 44.78592804 -21.19024658 45.63941956 C-21.1966214 46.97999672 -21.1966214 46.97999672 -21.203125 48.34765625 C-21.21167511 49.73735878 -21.21167511 49.73735878 -21.22039795 51.15513611 C-21.22984842 53.11960713 -21.23638212 55.08409401 -21.24023438 57.04858398 C-21.24988439 60.02682006 -21.28088407 63.0043494 -21.3125 65.98242188 C-21.31903605 67.89582926 -21.32428415 69.80924156 -21.328125 71.72265625 C-21.3404718 72.60220474 -21.3528186 73.48175323 -21.36553955 74.38795471 C-21.33119028 84.12188016 -19.04003809 92.99988651 -12 100 C-9.87193355 101.6597275 -7.73741256 103.27996158 -5.5625 104.875 C0.30109508 109.18889528 4.41219571 113.57555705 8 120 C8.45761719 120.81726563 8.91523438 121.63453125 9.38671875 122.4765625 C24.28347412 152.09113323 18.02566644 190.60361182 8.17578125 220.734375 C1.21467203 241.22976746 -9.09102751 262.88175803 -27 276 C-31.27171932 277.96706832 -34.27313666 278.69740607 -39 278 C-42.62233144 276.01936848 -45.9866575 273.8314506 -49 271 C-49 267.35063397 -48.16127161 266.55793885 -46 263.6875 C-24.3227227 233.37420479 -10.65333269 189.66885256 -16.65625 152.328125 C-20.09252609 134.75922435 -29.12743732 118.38936492 -38.875 103.5625 C-43.81852785 95.70990004 -44.44945654 87.95610654 -44.3984375 78.84375 C-44.40274277 77.13028381 -44.40274277 77.13028381 -44.40713501 75.38220215 C-44.4091671 72.97859193 -44.40369746 70.57496485 -44.39111328 68.17138672 C-44.37504834 64.51101387 -44.39099217 60.85174512 -44.41015625 57.19140625 C-44.40817367 54.84635175 -44.40432968 52.50129793 -44.3984375 50.15625 C-44.40754654 48.52931213 -44.40754654 48.52931213 -44.4168396 46.86950684 C-44.35695509 40.33820516 -43.43597793 35.05091724 -41 29 C-40.60683594 27.84113281 -40.21367187 26.68226562 -39.80859375 25.48828125 C-37.49571478 20.13110006 -35.42580468 16.2876582 -29.890625 14.046875 C-26.01361859 12.73268416 -22.06276777 11.7040756 -18.10986328 10.64599609 C-12.66269991 8.97818838 -7.83012177 5.87034423 -3.8671875 1.8203125 C-2 0 -2 0 0 0 Z " fill="#1F13BB" transform="translate(291,36)"/>
<path d="M0 0 C0.99 0.33 1.98 0.66 3 1 C-6.86675927 21.42547309 -18.4510815 38.37590125 -36 53 C-21.15 53.495 -21.15 53.495 -6 54 C-6.94356778 58.71783891 -8.46203144 62.3478329 -10.625 66.5625 C-10.98400391 67.26850342 -11.34300781 67.97450684 -11.71289062 68.7019043 C-19.17225668 83.23418336 -27.774969 96.09759644 -39 108 C-39.68578125 108.76183594 -40.3715625 109.52367187 -41.078125 110.30859375 C-54.4279571 124.57313657 -71.77270447 132.168829 -91 134 C-89.71029297 134.36351562 -89.71029297 134.36351562 -88.39453125 134.734375 C-80.22788635 137.04989046 -72.10293024 139.4695168 -64 142 C-65.89568156 151.49970759 -74.09953412 158.79174386 -81 165 C-81.95519531 165.86238281 -81.95519531 165.86238281 -82.9296875 166.7421875 C-88.96904973 171.3300292 -95.75027066 170.78628905 -103 170 C-112.45703279 168.44941859 -121.1716605 165.7030863 -130 162 C-129.85377197 161.1843457 -129.70754395 160.36869141 -129.55688477 159.52832031 C-129.00643444 156.44265433 -128.4609907 153.35615279 -127.91870117 150.26904297 C-127.57128442 148.29979246 -127.21833071 146.33152132 -126.86523438 144.36328125 C-125.50258422 136.58235141 -124.48571711 128.88576018 -124 121 C-123.21278564 120.67821777 -122.42557129 120.35643555 -121.61450195 120.02490234 C-118.39991295 118.70568006 -115.19879711 117.35706544 -112 116 C-110.41638672 115.33097656 -110.41638672 115.33097656 -108.80078125 114.6484375 C-95.00633536 108.57413046 -83.62636165 100.62636165 -73 90 C-72.23300781 89.23300781 -71.46601563 88.46601563 -70.67578125 87.67578125 C-59.2985343 75.64490432 -50.76519346 61.28846116 -42.42724609 47.08178711 C-31.49659043 28.49011301 -19.85443243 9.92721621 0 0 Z " fill="#E0E6EE" transform="translate(447,87)"/>
<path d="M0 0 C0.61875 0.165 1.2375 0.33 1.875 0.5 C8.67032469 1.58725195 15.22710825 1.04838374 22 0 C22.39832031 1.04800781 22.79664063 2.09601563 23.20703125 3.17578125 C23.74177173 4.55484879 24.27695102 5.93374623 24.8125 7.3125 C25.07353516 8.00279297 25.33457031 8.69308594 25.60351562 9.40429688 C27.4073873 14.37797466 27.4073873 14.37797466 31 18 C33.30988315 18.74386068 35.64315944 19.42190703 38 20 C42.40774487 38.82004556 42.40774487 38.82004556 43 48 C42.21625 48.268125 41.4325 48.53625 40.625 48.8125 C37.71885077 49.84814432 37.71885077 49.84814432 36 53 C35.6410121 54.92367219 35.6410121 54.92367219 35.578125 57.04296875 C35.52591797 57.85636719 35.47371094 58.66976562 35.41992188 59.5078125 C35.33581055 60.83425781 35.33581055 60.83425781 35.25 62.1875 C33.58453664 82.42497915 27.08288034 101.250776 20.33984375 120.26953125 C18.13943382 126.50825818 16.17918543 132.78437331 14.44506836 139.16772461 C13.59880436 142.235686 12.79301277 144.31048084 11 147 C5.66666667 131 0.33333333 115 -5 99 C-5.34514648 97.97374512 -5.69029297 96.94749023 -6.04589844 95.89013672 C-7.988311 90.00623704 -9.50519934 84.00983381 -11 78 C-11.23203125 77.07574219 -11.4640625 76.15148437 -11.703125 75.19921875 C-17.00562186 49.63360888 -11.15206041 23.16197162 0 0 Z " fill="#334155" transform="translate(245,327)"/>
<path d="M0 0 C1.38227783 0.74334595 1.38227783 0.74334595 2.79248047 1.50170898 C13.56982575 7.16444893 24.58852525 11.2332753 36.125 15.0625 C66.53239427 25.17647415 66.53239427 25.17647415 79 36 C79.78632812 36.63164063 80.57265625 37.26328125 81.3828125 37.9140625 C92.79692243 47.46756517 100.13114957 60.02541615 107.58276367 72.71362305 C111.87980014 79.9642178 116.5958843 86.52940043 122 93 C122.72574219 93.88945312 123.45148438 94.77890625 124.19921875 95.6953125 C136.5681309 110.21823628 151.78553893 117.7698656 170 122 C169.71382812 123.22589844 169.42765625 124.45179688 169.1328125 125.71484375 C167.81907288 131.62667202 166.84755415 137.58669504 165.875 143.5625 C165.60236328 145.21862305 165.60236328 145.21862305 165.32421875 146.90820312 C164.88057182 149.60510949 164.43921612 152.30236913 164 155 C160.86746133 154.45130049 158.17601833 153.77901735 155.328125 152.36328125 C154.66828613 152.03658447 154.00844727 151.7098877 153.32861328 151.37329102 C152.6426709 151.02322998 151.95672852 150.67316895 151.25 150.3125 C150.18048096 149.76903931 150.18048096 149.76903931 149.08935547 149.21459961 C139.56089366 144.30280883 131.71194047 138.47281053 124 131 C123.22011719 130.24589844 122.44023437 129.49179688 121.63671875 128.71484375 C113.64868516 120.46533606 107.65529708 110.83225 101.46704102 101.20727539 C100.04295329 99.06462651 98.6493221 96.97592888 97 95 C95.01101837 94.86272281 95.01101837 94.86272281 92.875 95.1875 C90.46484375 95.03515625 90.46484375 95.03515625 88 94 C84.86141441 89.91612129 82.54222616 85.50787435 80.1171875 80.97705078 C77.51048613 76.36405522 74.20882276 72.2055688 71 68 C71.350625 67.484375 71.70125 66.96875 72.0625 66.4375 C73.41673067 62.91650027 72.91199627 60.62807248 72 57 C64.17313083 46.12114411 52.11270365 39.78919279 40.125 34.625 C24.1485842 27.70858988 9.29581288 17.06562777 0 2 C0 1.34 0 0.68 0 0 Z " fill="#0F00BF" transform="translate(25,37)"/>
<path d="M0 0 C0 6.39455649 -6.87233659 12.02735366 -11.0625 16.5 C-19.70249788 24.85055071 -29.82822107 30.03482053 -40.625 35 C-48.97392773 38.85676917 -56.06802286 42.86468292 -63 49 C-63.90492188 49.79535156 -64.80984375 50.59070313 -65.7421875 51.41015625 C-77.76040809 62.6963889 -86.04898713 76.81394584 -94.27148438 90.95703125 C-109.69597158 117.45216971 -128.20293698 142.87385307 -158 154 C-159.66340464 154.34924761 -161.32981725 154.68475648 -163 155 C-163.16604736 153.98015015 -163.16604736 153.98015015 -163.33544922 152.93969727 C-163.84598548 149.81352598 -164.36046675 146.68801581 -164.875 143.5625 C-165.04902344 142.49322266 -165.22304688 141.42394531 -165.40234375 140.32226562 C-166.41960957 134.16215595 -167.58062153 128.08031049 -169 122 C-167.91203125 121.70867187 -166.8240625 121.41734375 -165.703125 121.1171875 C-137.79963659 113.43241768 -121.38876054 96.60886934 -106.48828125 72.29296875 C-85.97121396 38.81872179 -64.13509796 24.43465371 -27.3984375 12.12109375 C-17.69939001 8.84475443 -8.79995257 5.2831832 0 0 Z " fill="#0E00BF" transform="translate(486,37)"/>
<path d="M0 0 C0.66 0 1.32 0 2 0 C2.87736816 0.97114746 2.87736816 0.97114746 3.77246094 1.96191406 C6.5518017 4.50487074 7.92432558 4.5303048 11.640625 4.609375 C13.24550781 4.65771484 13.24550781 4.65771484 14.8828125 4.70703125 C16.54957031 4.72830078 16.54957031 4.72830078 18.25 4.75 C19.37664062 4.77964844 20.50328125 4.80929688 21.6640625 4.83984375 C24.44278021 4.91048912 27.22066148 4.96321277 30 5 C18.22230772 30.73772166 0.44135079 55.70949345 -27 66 C-27.92554688 66.35320312 -28.85109375 66.70640625 -29.8046875 67.0703125 C-34.22503011 68.35642685 -38.68300892 68.69129058 -43.25390625 69.03515625 C-46.63091726 69.37349573 -48.7386034 69.80590174 -51.48828125 71.84765625 C-53.3336253 74.0476577 -53.3336253 74.0476577 -53.0625 77.5625 C-52.34745918 81.02442227 -52.34745918 81.02442227 -50.046875 82.546875 C-45.89011895 84.52932788 -41.64695078 85.58677054 -37.1875 86.6875 C-36.30384766 86.91244141 -35.42019531 87.13738281 -34.50976562 87.36914062 C-32.3415559 87.9199831 -30.17175794 88.46335062 -28 89 C-30.6701709 97.09573091 -37.85556299 102.0706757 -45.14916992 105.97460938 C-57.08139427 111.98226035 -68.67359024 114.1936261 -81.9375 114.0625 C-82.81212891 114.05798828 -83.68675781 114.05347656 -84.58789062 114.04882812 C-86.72529047 114.03714834 -88.86265463 114.01921689 -91 114 C-91 113.67 -91 113.34 -91 113 C-89.72125 112.979375 -88.4425 112.95875 -87.125 112.9375 C-77.34927956 111.81896145 -69.0162366 103.29970041 -63 96 C-60.76401429 92.43625371 -58.80954641 88.79649934 -57 85 C-57.57105469 84.90203125 -58.14210938 84.8040625 -58.73046875 84.703125 C-68.0786095 82.97914356 -77.00179654 80.01736164 -86 77 C-86 76.67 -86 76.34 -86 76 C-84.53240234 75.83564453 -84.53240234 75.83564453 -83.03515625 75.66796875 C-58.96859257 72.8291907 -40.04804432 61.06271178 -24.65527344 42.36669922 C-14.60622057 29.47968412 -6.4169122 14.99888015 0 0 Z " fill="#344155" transform="translate(440,144)"/>
<path d="M0 0 C1.78126949 3.56253898 -0.48477702 7.28714497 -1.65454102 10.9140625 C-8.96339818 32.76314462 -18.0523865 50.15864984 -34 67 C-35.05767578 68.11955078 -35.05767578 68.11955078 -36.13671875 69.26171875 C-39.04991518 72.26369831 -41.78950183 75.00842 -45.375 77.1875 C-48.54111962 79.0163344 -48.54111962 79.0163344 -50 84 C-60.56 84 -71.12 84 -82 84 C-78.79811631 80.79811631 -75.7218754 77.86223692 -72.3125 74.9375 C-59.32771408 63.24157432 -48.01789612 47.53337777 -42 31 C-42 30.34 -42 29.68 -42 29 C-40.93523437 28.53851563 -39.87046875 28.07703125 -38.7734375 27.6015625 C-23.42291687 20.77653959 -11.44723353 12.28825477 0 0 Z " fill="#334154" transform="translate(491,57)"/>
<path d="M0 0 C0.66 0 1.32 0 2 0 C3.80639559 2.00102407 5.4745127 4.00007435 7.125 6.125 C7.61564941 6.75519043 8.10629883 7.38538086 8.61181641 8.03466797 C25.55945361 30.27602426 32.67672493 55.53679618 29.75244141 83.35498047 C28.47178998 92.77253121 25.79057637 101.93416815 23 111 C9.480631 97.64636757 9.480631 97.64636757 9.4375 91.1875 C9.63164514 88.98581151 10.01637231 86.92821372 10.5078125 84.7734375 C11.17940177 80.98908526 11.34198114 77.27472326 11.4375 73.4375 C11.50614258 72.30538086 11.50614258 72.30538086 11.57617188 71.15039062 C11.69217556 68.63502895 11.69217556 68.63502895 11 65 C8.12137818 62.67793463 8.12137818 62.67793463 5 61 C4.1171875 59.08984375 4.1171875 59.08984375 3.875 56.9375 C3.37728043 53.32362311 2.74288962 49.83373828 1.859375 46.296875 C1.65715332 45.45777588 1.45493164 44.61867676 1.24658203 43.75415039 C0.83673844 42.06181511 0.41095401 40.37324996 -0.03173828 38.68920898 C-0.5607473 36.40188585 -0.98466398 34.34868293 -1 32 C0.890625 29.14453125 0.890625 29.14453125 3 27 C3.24538576 20.12919877 0.22726542 14.94539957 -2.91796875 8.953125 C-4 6 -4 6 -3.30078125 3.734375 C-2 2 -2 2 0 0 Z " fill="#0E00BE" transform="translate(283,314)"/>
<path d="M0 0 C1.9375 0.8125 1.9375 0.8125 4 2 C5.39060754 6.17182263 3.60644713 8.55592513 1.8125 12.3125 C-1.57157672 19.71537744 -4.03570187 27.08798988 -6 35 C-6.28746094 36.13695312 -6.57492188 37.27390625 -6.87109375 38.4453125 C-9.21701456 48.1208328 -10.19479699 57.36670294 -10.1875 67.3125 C-10.18814453 68.23095703 -10.18878906 69.14941406 -10.18945312 70.09570312 C-10.14305407 76.07274444 -9.693477 81.76377399 -8.4375 87.625 C-7.29707056 93.81590269 -7.29707056 93.81590269 -9.00292969 96.68945312 C-10.39866195 98.6015552 -11.86325912 100.42835224 -13.375 102.25 C-13.88289062 102.88679688 -14.39078125 103.52359375 -14.9140625 104.1796875 C-18.68331473 108.84165737 -18.68331473 108.84165737 -21 110 C-30.66761181 81.78235133 -31.35927154 52.33032376 -18.07275391 25.09960938 C-13.31199686 15.84460076 -7.49537049 7.26474371 0 0 Z " fill="#0E00BD" transform="translate(228,315)"/>
<path d="M0 0 C0 11.55 0 23.1 0 35 C-11.22 35 -22.44 35 -34 35 C-35.54672038 28.81311846 -32.9449464 24.47787048 -30 19 C-23.2036886 9.39001568 -12.31261219 0 0 0 Z " fill="#D9DEE6" transform="translate(210,53)"/>
<path d="M0 0 C0.66 0 1.32 0 2 0 C2.82151737 2.81013505 3.63231562 5.62268186 4.4375 8.4375 C4.66759766 9.22060547 4.89769531 10.00371094 5.13476562 10.81054688 C11.40841473 32.90470241 10.0404501 59.55879973 2 81 C1.34 81 0.68 81 0 81 C-8.49417536 53.4047095 -10.08833991 27.49968798 0 0 Z " fill="#DCE2EA" transform="translate(239,342)"/>
<path d="M0 0 C2.97 0 5.94 0 9 0 C8.67 0.99 8.34 1.98 8 3 C5.36 2.34 2.72 1.68 0 1 C0 0.67 0 0.34 0 0 Z " fill="#5E6A7B" transform="translate(354,220)"/>
</svg>
